<svg xmlns="http://www.w3.org/2000/svg" viewBox="0 0 32 32" role="img" aria-labelledby="title">
  <title id="title">WhatsApp</title>
  <circle cx="16" cy="16" r="16" fill="#25d366"/>
  <path fill="#fff" d="M23.4 19.1c-.4-.2-2.2-1.1-2.5-1.2s-.6-.2-.8.2c-.2.4-.9 1.2-1.1 1.4-.2.2-.4.3-.8.1-.4-.2-1.5-.5-2.8-1.7-1-1-1.7-2.1-1.9-2.5-.2-.4 0-.6.2-.8.2-.2.4-.4.6-.7.2-.2.2-.4.4-.6.1-.2.1-.5 0-.7-.1-.2-.8-1.9-1.1-2.6-.3-.7-.6-.6-.8-.6h-.7c-.2 0-.7.1-1 .5-.4.4-1.3 1.3-1.3 3.1s1.3 3.6 1.5 3.9c.2.2 2.6 4 6.3 5.6.9.4 1.6.6 2.1.8.9.3 1.7.3 2.3.2.7-.1 2.2-.9 2.5-1.7.3-.8.3-1.5.2-1.7-.1-.2-.4-.3-.8-.5z"/>
  <path fill="#fff" d="M16 5.4A10.5 10.5 0 0 0 7 21.3L5.8 26l4.8-1.2A10.5 10.5 0 1 0 16 5.4zm0 19.2c-1.8 0-3.5-.5-5-1.5l-.4-.2-2.8.7.8-2.7-.3-.4a8.7 8.7 0 1 1 7.7 4.1z"/>
</svg>
